%TF.GenerationSoftware,KiCad,Pcbnew,8.0.8*%
%TF.CreationDate,2025-02-12T06:41:47+01:00*%
%TF.ProjectId,20 Bands Equalizer,32302042-616e-4647-9320-457175616c69,rev?*%
%TF.SameCoordinates,Original*%
%TF.FileFunction,Soldermask,Top*%
%TF.FilePolarity,Negative*%
%FSLAX46Y46*%
G04 Gerber Fmt 4.6, Leading zero omitted, Abs format (unit mm)*
G04 Created by KiCad (PCBNEW 8.0.8) date 2025-02-12 06:41:47*
%MOMM*%
%LPD*%
G01*
G04 APERTURE LIST*
G04 Aperture macros list*
%AMRoundRect*
0 Rectangle with rounded corners*
0 $1 Rounding radius*
0 $2 $3 $4 $5 $6 $7 $8 $9 X,Y pos of 4 corners*
0 Add a 4 corners polygon primitive as box body*
4,1,4,$2,$3,$4,$5,$6,$7,$8,$9,$2,$3,0*
0 Add four circle primitives for the rounded corners*
1,1,$1+$1,$2,$3*
1,1,$1+$1,$4,$5*
1,1,$1+$1,$6,$7*
1,1,$1+$1,$8,$9*
0 Add four rect primitives between the rounded corners*
20,1,$1+$1,$2,$3,$4,$5,0*
20,1,$1+$1,$4,$5,$6,$7,0*
20,1,$1+$1,$6,$7,$8,$9,0*
20,1,$1+$1,$8,$9,$2,$3,0*%
%AMFreePoly0*
4,1,123,0.971831,0.949200,1.016256,0.946076,1.060503,0.940869,1.104445,0.933604,1.148006,0.924257,1.191059,0.912903,1.233553,0.899543,1.275362,0.884201,1.316408,0.866904,1.356617,0.847727,1.395860,0.826670,1.434087,0.803785,1.471196,0.779147,1.507112,0.752807,1.541732,0.724816,1.575032,0.695199,1.606883,0.664084,1.637262,0.631496,1.666066,0.597536,1.693244,0.562256,
1.718745,0.525730,1.742494,0.488062,1.764465,0.449301,1.784608,0.409576,1.802845,0.330277,3.500178,0.330277,3.500178,-0.329718,1.802845,-0.329718,1.784608,-0.409068,1.764465,-0.448793,1.742494,-0.487554,1.718745,-0.525222,1.693244,-0.561748,1.666066,-0.597028,1.637262,-0.630988,1.606883,-0.663576,1.575032,-0.694691,1.541732,-0.724308,1.507112,-0.752299,1.471196,-0.778639,
1.434087,-0.803277,1.395860,-0.826162,1.356617,-0.847219,1.316408,-0.866396,1.275362,-0.883693,1.233553,-0.899035,1.191059,-0.912395,1.148006,-0.923749,1.104445,-0.933096,1.060503,-0.940361,1.016256,-0.945568,0.971831,-0.948692,0.927305,-0.949759,-0.926899,-0.949759,-0.971425,-0.948692,-1.015850,-0.945568,-1.060097,-0.940361,-1.104039,-0.933096,-1.147600,-0.923749,-1.190653,-0.912395,
-1.233147,-0.899035,-1.274956,-0.883693,-1.316002,-0.866396,-1.356210,-0.847219,-1.395453,-0.826162,-1.433680,-0.803277,-1.470790,-0.778639,-1.506706,-0.752299,-1.541326,-0.724308,-1.574625,-0.694691,-1.606477,-0.663576,-1.636855,-0.630988,-1.665659,-0.597028,-1.692837,-0.561748,-1.718339,-0.525222,-1.742088,-0.487554,-1.764059,-0.448793,-1.784201,-0.409068,-1.802438,-0.368428,-1.818771,-0.327000,
-1.833122,-0.284836,-1.845491,-0.242037,-1.855829,-0.198705,-1.864135,-0.154966,-1.870384,-0.110846,-1.874549,-0.066497,-1.876632,-0.022022,-1.876632,0.022530,-1.874549,0.067005,-1.870384,0.111354,-1.864135,0.155474,-1.855829,0.199213,-1.845491,0.242545,-1.833122,0.285344,-1.818771,0.327508,-1.802438,0.368936,-1.784201,0.409576,-1.764059,0.449301,-1.742088,0.488062,-1.718339,0.525730,
-1.692837,0.562256,-1.665659,0.597536,-1.636855,0.631496,-1.606477,0.664084,-1.574625,0.695199,-1.541326,0.724816,-1.506706,0.752807,-1.470790,0.779147,-1.433680,0.803785,-1.395453,0.826670,-1.356210,0.847727,-1.316002,0.866904,-1.274956,0.884201,-1.233147,0.899543,-1.190653,0.912903,-1.147600,0.924257,-1.104039,0.933604,-1.060097,0.940869,-1.015850,0.946076,-0.971425,0.949200,
-0.926899,0.950267,0.927305,0.950267,0.971831,0.949200,0.971831,0.949200,$1*%
%AMFreePoly1*
4,1,123,0.971476,0.948895,1.015900,0.945771,1.060147,0.940564,1.104089,0.933299,1.147650,0.923952,1.190704,0.912598,1.233198,0.899238,1.275006,0.883896,1.316053,0.866599,1.356261,0.847422,1.395504,0.826365,1.433731,0.803480,1.470841,0.778842,1.506756,0.752502,1.541377,0.724511,1.574676,0.694895,1.606528,0.663780,1.636906,0.631191,1.665710,0.597231,1.692888,0.561951,
1.718390,0.525425,1.742139,0.487757,1.764110,0.448997,1.784252,0.409271,1.802489,0.368631,1.818821,0.327203,1.833172,0.285039,1.845542,0.242240,1.855880,0.198908,1.864186,0.155169,1.870434,0.111049,1.874600,0.066701,1.876683,0.022225,1.876683,-0.022327,1.874600,-0.066802,1.870434,-0.111151,1.864186,-0.155271,1.855880,-0.199009,1.845542,-0.242342,1.833172,-0.285141,
1.818821,-0.327305,1.802489,-0.368733,1.784252,-0.409373,1.764110,-0.449098,1.742139,-0.487859,1.718390,-0.525527,1.692888,-0.562052,1.665710,-0.597333,1.636906,-0.631293,1.606528,-0.663881,1.574676,-0.694996,1.541377,-0.724613,1.506756,-0.752604,1.470841,-0.778943,1.433731,-0.803581,1.395504,-0.826467,1.356261,-0.847523,1.316053,-0.866701,1.275006,-0.883998,1.233198,-0.899340,
1.190704,-0.912700,1.147650,-0.924054,1.104089,-0.933401,1.060147,-0.940665,1.015900,-0.945872,0.971476,-0.948997,0.926949,-0.950064,-0.927254,-0.950064,-0.971781,-0.948997,-1.016205,-0.945872,-1.060452,-0.940665,-1.104394,-0.933401,-1.147955,-0.924054,-1.191008,-0.912700,-1.233503,-0.899340,-1.275311,-0.883998,-1.316358,-0.866701,-1.356566,-0.847523,-1.395809,-0.826467,-1.434036,-0.803581,
-1.471146,-0.778943,-1.507061,-0.752604,-1.541681,-0.724613,-1.574981,-0.694996,-1.606833,-0.663881,-1.637211,-0.631293,-1.666015,-0.597333,-1.693193,-0.562052,-1.718694,-0.525527,-1.742443,-0.487859,-1.764415,-0.449098,-1.784557,-0.409373,-1.802794,-0.330074,-3.500127,-0.330074,-3.500127,0.329921,-1.802794,0.329921,-1.784557,0.409271,-1.764415,0.448997,-1.742443,0.487757,-1.718694,0.525425,
-1.693193,0.561951,-1.666015,0.597231,-1.637211,0.631191,-1.606833,0.663780,-1.574981,0.694895,-1.541681,0.724511,-1.507061,0.752502,-1.471146,0.778842,-1.434036,0.803480,-1.395809,0.826365,-1.356566,0.847422,-1.316358,0.866599,-1.275311,0.883896,-1.233503,0.899238,-1.191008,0.912598,-1.147955,0.923952,-1.104394,0.933299,-1.060452,0.940564,-1.016205,0.945771,-0.971781,0.948895,
-0.927254,0.949962,0.926949,0.949962,0.971476,0.948895,0.971476,0.948895,$1*%
G04 Aperture macros list end*
%ADD10RoundRect,0.400000X0.850000X-0.400000X0.850000X0.400000X-0.850000X0.400000X-0.850000X-0.400000X0*%
%ADD11RoundRect,0.250000X0.350000X0.450000X-0.350000X0.450000X-0.350000X-0.450000X0.350000X-0.450000X0*%
%ADD12C,0.800000*%
%ADD13C,6.400000*%
%ADD14RoundRect,0.225000X-0.375000X0.225000X-0.375000X-0.225000X0.375000X-0.225000X0.375000X0.225000X0*%
%ADD15RoundRect,0.250000X-0.350000X-0.450000X0.350000X-0.450000X0.350000X0.450000X-0.350000X0.450000X0*%
%ADD16RoundRect,0.250000X0.450000X-0.350000X0.450000X0.350000X-0.450000X0.350000X-0.450000X-0.350000X0*%
%ADD17RoundRect,0.250000X-0.337500X-0.475000X0.337500X-0.475000X0.337500X0.475000X-0.337500X0.475000X0*%
%ADD18RoundRect,0.250000X-0.450000X0.350000X-0.450000X-0.350000X0.450000X-0.350000X0.450000X0.350000X0*%
%ADD19R,1.750000X1.750000*%
%ADD20C,1.750000*%
%ADD21C,2.700000*%
%ADD22C,2.500000*%
%ADD23RoundRect,0.225000X-0.225000X-0.375000X0.225000X-0.375000X0.225000X0.375000X-0.225000X0.375000X0*%
%ADD24R,2.400000X1.600000*%
%ADD25O,2.400000X1.600000*%
%ADD26C,1.200000*%
%ADD27O,1.200000X2.200000*%
%ADD28O,2.200000X1.200000*%
%ADD29RoundRect,0.250000X0.337500X0.475000X-0.337500X0.475000X-0.337500X-0.475000X0.337500X-0.475000X0*%
%ADD30RoundRect,0.250000X0.475000X-0.337500X0.475000X0.337500X-0.475000X0.337500X-0.475000X-0.337500X0*%
%ADD31R,1.575006X0.672009*%
%ADD32FreePoly0,0.000000*%
%ADD33RoundRect,0.250000X-0.600000X-0.725000X0.600000X-0.725000X0.600000X0.725000X-0.600000X0.725000X0*%
%ADD34O,1.700000X1.950000*%
%ADD35RoundRect,0.150000X-0.825000X-0.150000X0.825000X-0.150000X0.825000X0.150000X-0.825000X0.150000X0*%
%ADD36RoundRect,0.250000X-0.475000X0.337500X-0.475000X-0.337500X0.475000X-0.337500X0.475000X0.337500X0*%
%ADD37RoundRect,0.250000X0.600000X0.750000X-0.600000X0.750000X-0.600000X-0.750000X0.600000X-0.750000X0*%
%ADD38O,1.700000X2.000000*%
%ADD39RoundRect,0.250000X0.725000X-0.600000X0.725000X0.600000X-0.725000X0.600000X-0.725000X-0.600000X0*%
%ADD40O,1.950000X1.700000*%
%ADD41FreePoly1,0.000000*%
%ADD42RoundRect,0.150000X0.825000X0.150000X-0.825000X0.150000X-0.825000X-0.150000X0.825000X-0.150000X0*%
%ADD43RoundRect,0.250000X1.750000X1.000000X-1.750000X1.000000X-1.750000X-1.000000X1.750000X-1.000000X0*%
%ADD44R,2.000000X4.600000*%
%ADD45O,2.000000X4.200000*%
%ADD46O,4.200000X2.000000*%
G04 APERTURE END LIST*
D10*
%TO.C,D11*%
X198527500Y-88976667D03*
X198527500Y-86436667D03*
%TD*%
D11*
%TO.C,R15*%
X104067500Y-72151667D03*
X102067500Y-72151667D03*
%TD*%
D12*
%TO.C,H3*%
X202552500Y-35264611D03*
X203255444Y-33567555D03*
X203255444Y-36961667D03*
X204952500Y-32864611D03*
D13*
X204952500Y-35264611D03*
D12*
X204952500Y-37664611D03*
X206649556Y-33567555D03*
X206649556Y-36961667D03*
X207352500Y-35264611D03*
%TD*%
D14*
%TO.C,D18*%
X206470000Y-102548611D03*
X206470000Y-105848611D03*
%TD*%
D15*
%TO.C,R6*%
X83480000Y-62611667D03*
X85480000Y-62611667D03*
%TD*%
D10*
%TO.C,D19*%
X211447500Y-103916667D03*
X211447500Y-101376667D03*
%TD*%
D16*
%TO.C,R38*%
X192427500Y-95876667D03*
X192427500Y-93876667D03*
%TD*%
D15*
%TO.C,R11*%
X50800000Y-62371667D03*
X52800000Y-62371667D03*
%TD*%
D12*
%TO.C,H6*%
X372552500Y-134461667D03*
X373255444Y-132764611D03*
X373255444Y-136158723D03*
X374952500Y-132061667D03*
D13*
X374952500Y-134461667D03*
D12*
X374952500Y-136861667D03*
X376649556Y-132764611D03*
X376649556Y-136158723D03*
X377352500Y-134461667D03*
%TD*%
D10*
%TO.C,D4*%
X198527500Y-118856667D03*
X198527500Y-116316667D03*
%TD*%
D12*
%TO.C,H8*%
X372552500Y-84913139D03*
X373255444Y-83216083D03*
X373255444Y-86610195D03*
X374952500Y-82513139D03*
D13*
X374952500Y-84913139D03*
D12*
X374952500Y-87313139D03*
X376649556Y-83216083D03*
X376649556Y-86610195D03*
X377352500Y-84913139D03*
%TD*%
D17*
%TO.C,C11*%
X54762500Y-61351667D03*
X56837500Y-61351667D03*
%TD*%
D18*
%TO.C,R77*%
X55635000Y-47640000D03*
X55635000Y-49640000D03*
%TD*%
D15*
%TO.C,R10*%
X50770000Y-60271667D03*
X52770000Y-60271667D03*
%TD*%
%TO.C,R51*%
X229442500Y-60901667D03*
X231442500Y-60901667D03*
%TD*%
D12*
%TO.C,H14*%
X372552500Y-68520000D03*
X373255444Y-66822944D03*
X373255444Y-70217056D03*
X374952500Y-66120000D03*
D13*
X374952500Y-68520000D03*
D12*
X374952500Y-70920000D03*
X376649556Y-66822944D03*
X376649556Y-70217056D03*
X377352500Y-68520000D03*
%TD*%
D19*
%TO.C,RV20*%
X332686553Y-127931667D03*
D20*
X336186553Y-127931667D03*
X332686553Y-84431667D03*
D21*
X338636553Y-123781667D03*
X330236553Y-122581667D03*
X330236553Y-89781667D03*
X338636553Y-88581667D03*
%TD*%
D14*
%TO.C,D5*%
X204000000Y-107702222D03*
X204000000Y-111002222D03*
%TD*%
D15*
%TO.C,R62*%
X302522500Y-62824167D03*
X304522500Y-62824167D03*
%TD*%
D22*
%TO.C,H9*%
X204987500Y-87706667D03*
%TD*%
D10*
%TO.C,D12*%
X211447500Y-126326667D03*
X211447500Y-123786667D03*
%TD*%
D15*
%TO.C,R47*%
X258272500Y-62641667D03*
X260272500Y-62641667D03*
%TD*%
D19*
%TO.C,RV1*%
X60608667Y-127931667D03*
D20*
X64108667Y-127931667D03*
X60608667Y-84431667D03*
D21*
X66558667Y-123781667D03*
X58158667Y-122581667D03*
X58158667Y-89781667D03*
X66558667Y-88581667D03*
%TD*%
D10*
%TO.C,D21*%
X211447500Y-96446667D03*
X211447500Y-93906667D03*
%TD*%
D23*
%TO.C,D3*%
X198290000Y-72990000D03*
X201590000Y-72990000D03*
%TD*%
D17*
%TO.C,C54*%
X325425000Y-58494167D03*
X327500000Y-58494167D03*
%TD*%
D11*
%TO.C,R13*%
X108077500Y-68481667D03*
X106077500Y-68481667D03*
%TD*%
D24*
%TO.C,U4*%
X166332500Y-57981667D03*
D25*
X166332500Y-60521667D03*
X166332500Y-63061667D03*
X166332500Y-65601667D03*
X166332500Y-68141667D03*
X166332500Y-70681667D03*
X166332500Y-73221667D03*
X173952500Y-73221667D03*
X173952500Y-70681667D03*
X173952500Y-68141667D03*
X173952500Y-65601667D03*
X173952500Y-63061667D03*
X173952500Y-60521667D03*
X173952500Y-57981667D03*
%TD*%
D19*
%TO.C,RV3*%
X47398334Y-122806667D03*
D20*
X50898334Y-122806667D03*
X47398334Y-89806667D03*
D21*
X53348334Y-118906667D03*
X44948334Y-117706667D03*
X44948334Y-94906667D03*
X53348334Y-93706667D03*
%TD*%
D11*
%TO.C,R69*%
X323522500Y-59514167D03*
X321522500Y-59514167D03*
%TD*%
D26*
%TO.C,J4*%
X149532500Y-34884611D03*
X149532500Y-32384611D03*
X144532500Y-39884611D03*
X139532500Y-34884611D03*
X139532500Y-32384611D03*
D27*
X149532500Y-39884611D03*
D28*
X144532500Y-34884611D03*
D27*
X139532500Y-39884611D03*
%TD*%
D11*
%TO.C,R18*%
X104067500Y-59431667D03*
X102067500Y-59431667D03*
%TD*%
%TO.C,R59*%
X279122500Y-59261667D03*
X277122500Y-59261667D03*
%TD*%
D15*
%TO.C,R30*%
X161662500Y-59361667D03*
X163662500Y-59361667D03*
%TD*%
D17*
%TO.C,C64*%
X354525000Y-65606667D03*
X356600000Y-65606667D03*
%TD*%
%TO.C,C12*%
X105940000Y-72821667D03*
X108015000Y-72821667D03*
%TD*%
D14*
%TO.C,D13*%
X206470000Y-112924167D03*
X206470000Y-116224167D03*
%TD*%
D17*
%TO.C,C40*%
X233505000Y-61611667D03*
X235580000Y-61611667D03*
%TD*%
D29*
%TO.C,C53*%
X327440000Y-71114167D03*
X325365000Y-71114167D03*
%TD*%
D16*
%TO.C,R36*%
X192407500Y-110816667D03*
X192407500Y-108816667D03*
%TD*%
D24*
%TO.C,U7*%
X351737500Y-57981667D03*
D25*
X351737500Y-60521667D03*
X351737500Y-63061667D03*
X351737500Y-65601667D03*
X351737500Y-68141667D03*
X351737500Y-70681667D03*
X351737500Y-73221667D03*
X359357500Y-73221667D03*
X359357500Y-70681667D03*
X359357500Y-68141667D03*
X359357500Y-65601667D03*
X359357500Y-63061667D03*
X359357500Y-60521667D03*
X359357500Y-57981667D03*
%TD*%
D12*
%TO.C,H4*%
X202552500Y-134461667D03*
X203255444Y-132764611D03*
X203255444Y-136158723D03*
X204952500Y-132061667D03*
D13*
X204952500Y-134461667D03*
D12*
X204952500Y-136861667D03*
X206649556Y-132764611D03*
X206649556Y-136158723D03*
X207352500Y-134461667D03*
%TD*%
D29*
%TO.C,C56*%
X345230000Y-58361667D03*
X343155000Y-58361667D03*
%TD*%
D30*
%TO.C,C33*%
X215170000Y-79177500D03*
X215170000Y-77102500D03*
%TD*%
D16*
%TO.C,R19*%
X64680000Y-66151667D03*
X64680000Y-64151667D03*
%TD*%
D15*
%TO.C,R21*%
X120822500Y-62621667D03*
X122822500Y-62621667D03*
%TD*%
D17*
%TO.C,C25*%
X143825000Y-58341667D03*
X145900000Y-58341667D03*
%TD*%
%TO.C,C49*%
X302475000Y-60754167D03*
X304550000Y-60754167D03*
%TD*%
D31*
%TO.C,Q4*%
X65816439Y-44719873D03*
D32*
X63103713Y-43220254D03*
D31*
X65816439Y-41719873D03*
%TD*%
D16*
%TO.C,R44*%
X217617500Y-103356667D03*
X217617500Y-101356667D03*
%TD*%
D17*
%TO.C,C1*%
X38982500Y-40900000D03*
X41057500Y-40900000D03*
%TD*%
%TO.C,C66*%
X132345000Y-65611667D03*
X134420000Y-65611667D03*
%TD*%
D15*
%TO.C,R12*%
X87457500Y-72131667D03*
X89457500Y-72131667D03*
%TD*%
D17*
%TO.C,C30*%
X157725000Y-70791667D03*
X159800000Y-70791667D03*
%TD*%
D19*
%TO.C,RV13*%
X253424555Y-127931667D03*
D20*
X256924555Y-127931667D03*
X253424555Y-84431667D03*
D21*
X259374555Y-123781667D03*
X250974555Y-122581667D03*
X250974555Y-89781667D03*
X259374555Y-88581667D03*
%TD*%
D19*
%TO.C,RV14*%
X227003889Y-122806667D03*
D20*
X230503889Y-122806667D03*
X227003889Y-89806667D03*
D21*
X232953889Y-118906667D03*
X224553889Y-117706667D03*
X224553889Y-94906667D03*
X232953889Y-93706667D03*
%TD*%
D19*
%TO.C,RV19*%
X319476220Y-127931667D03*
D20*
X322976220Y-127931667D03*
X319476220Y-84431667D03*
D21*
X325426220Y-123781667D03*
X317026220Y-122581667D03*
X317026220Y-89781667D03*
X325426220Y-88581667D03*
%TD*%
D24*
%TO.C,U2*%
X91927500Y-57981667D03*
D25*
X91927500Y-60521667D03*
X91927500Y-63061667D03*
X91927500Y-65601667D03*
X91927500Y-68141667D03*
X91927500Y-70681667D03*
X91927500Y-73221667D03*
X99547500Y-73221667D03*
X99547500Y-70681667D03*
X99547500Y-68141667D03*
X99547500Y-65601667D03*
X99547500Y-63061667D03*
X99547500Y-60521667D03*
X99547500Y-57981667D03*
%TD*%
D33*
%TO.C,J7*%
X125130000Y-47500000D03*
D34*
X127630000Y-47500000D03*
X130130000Y-47500000D03*
X132630000Y-47500000D03*
%TD*%
D30*
%TO.C,C34*%
X213040000Y-79177500D03*
X213040000Y-77102500D03*
%TD*%
D17*
%TO.C,C36*%
X258235000Y-60561667D03*
X260310000Y-60561667D03*
%TD*%
D35*
%TO.C,U9*%
X234282500Y-63686667D03*
X234282500Y-64956667D03*
X234282500Y-66226667D03*
X234282500Y-67496667D03*
X239232500Y-67496667D03*
X239232500Y-66226667D03*
X239232500Y-64956667D03*
X239232500Y-63686667D03*
%TD*%
D18*
%TO.C,R4*%
X60025000Y-45205000D03*
X60025000Y-47205000D03*
%TD*%
D17*
%TO.C,C59*%
X343205000Y-70931667D03*
X345280000Y-70931667D03*
%TD*%
D29*
%TO.C,C24*%
X146060000Y-71031667D03*
X143985000Y-71031667D03*
%TD*%
D15*
%TO.C,R32*%
X161642500Y-71941667D03*
X163642500Y-71941667D03*
%TD*%
D36*
%TO.C,C43*%
X239222500Y-71431667D03*
X239222500Y-73506667D03*
%TD*%
D14*
%TO.C,D7*%
X204000000Y-102526111D03*
X204000000Y-105826111D03*
%TD*%
%TO.C,D2*%
X204000000Y-112878333D03*
X204000000Y-116178333D03*
%TD*%
D18*
%TO.C,R5*%
X60035000Y-48995000D03*
X60035000Y-50995000D03*
%TD*%
D11*
%TO.C,R16*%
X107967500Y-62731667D03*
X105967500Y-62731667D03*
%TD*%
%TO.C,R57*%
X283062500Y-62621667D03*
X281062500Y-62621667D03*
%TD*%
%TO.C,R66*%
X327402500Y-69054167D03*
X325402500Y-69054167D03*
%TD*%
D37*
%TO.C,J3*%
X164952500Y-38464611D03*
D38*
X162452500Y-38464611D03*
%TD*%
D33*
%TO.C,J6*%
X124992500Y-35861667D03*
D34*
X127492500Y-35861667D03*
X129992500Y-35861667D03*
X132492500Y-35861667D03*
%TD*%
D36*
%TO.C,C18*%
X66760000Y-66244167D03*
X66760000Y-68319167D03*
%TD*%
D16*
%TO.C,R46*%
X217657500Y-88126667D03*
X217657500Y-86126667D03*
%TD*%
D22*
%TO.C,H11*%
X84502500Y-38464611D03*
%TD*%
D10*
%TO.C,D22*%
X211447500Y-88976667D03*
X211447500Y-86436667D03*
%TD*%
D15*
%TO.C,R71*%
X347082500Y-59401667D03*
X349082500Y-59401667D03*
%TD*%
D29*
%TO.C,C26*%
X145900000Y-60541667D03*
X143825000Y-60541667D03*
%TD*%
D39*
%TO.C,J5*%
X36000000Y-70000000D03*
D40*
X36000000Y-67500000D03*
X36000000Y-65000000D03*
%TD*%
D15*
%TO.C,R7*%
X87377500Y-59431667D03*
X89377500Y-59431667D03*
%TD*%
D31*
%TO.C,U1*%
X62279250Y-49780127D03*
D41*
X64991722Y-51288636D03*
D31*
X62279250Y-52780127D03*
%TD*%
D15*
%TO.C,R64*%
X302492500Y-69094167D03*
X304492500Y-69094167D03*
%TD*%
D11*
%TO.C,R28*%
X141912500Y-59331667D03*
X139912500Y-59331667D03*
%TD*%
%TO.C,R42*%
X210763750Y-73000000D03*
X208763750Y-73000000D03*
%TD*%
D29*
%TO.C,C29*%
X159800000Y-72861667D03*
X157725000Y-72861667D03*
%TD*%
D15*
%TO.C,R55*%
X237232500Y-69481667D03*
X239232500Y-69481667D03*
%TD*%
D19*
%TO.C,RV17*%
X293055554Y-127931667D03*
D20*
X296555554Y-127931667D03*
X293055554Y-84431667D03*
D21*
X299005554Y-123781667D03*
X290605554Y-122581667D03*
X290605554Y-89781667D03*
X299005554Y-88581667D03*
%TD*%
D15*
%TO.C,R70*%
X343232500Y-62501667D03*
X345232500Y-62501667D03*
%TD*%
D19*
%TO.C,RV4*%
X87029333Y-127931667D03*
D20*
X90529333Y-127931667D03*
X87029333Y-84431667D03*
D21*
X92979333Y-123781667D03*
X84579333Y-122581667D03*
X84579333Y-89781667D03*
X92979333Y-88581667D03*
%TD*%
D15*
%TO.C,R53*%
X262122500Y-71981667D03*
X264122500Y-71981667D03*
%TD*%
D17*
%TO.C,C65*%
X169120000Y-65606667D03*
X171195000Y-65606667D03*
%TD*%
D16*
%TO.C,R41*%
X217607500Y-118286667D03*
X217607500Y-116286667D03*
%TD*%
D29*
%TO.C,C35*%
X260310000Y-58451667D03*
X258235000Y-58451667D03*
%TD*%
D16*
%TO.C,R33*%
X192387500Y-125756667D03*
X192387500Y-123756667D03*
%TD*%
D29*
%TO.C,C48*%
X304580000Y-58684167D03*
X302505000Y-58684167D03*
%TD*%
D10*
%TO.C,D6*%
X198527500Y-111386667D03*
X198527500Y-108846667D03*
%TD*%
D17*
%TO.C,C7*%
X83442500Y-60511667D03*
X85517500Y-60511667D03*
%TD*%
D11*
%TO.C,R26*%
X141992500Y-71921667D03*
X139992500Y-71921667D03*
%TD*%
D17*
%TO.C,C20*%
X120785000Y-60541667D03*
X122860000Y-60541667D03*
%TD*%
%TO.C,C28*%
X157715000Y-60681667D03*
X159790000Y-60681667D03*
%TD*%
D15*
%TO.C,R22*%
X124912500Y-59361667D03*
X126912500Y-59361667D03*
%TD*%
%TO.C,R52*%
X229442500Y-62911667D03*
X231442500Y-62911667D03*
%TD*%
D18*
%TO.C,R61*%
X248272500Y-66981667D03*
X248272500Y-68981667D03*
%TD*%
D19*
%TO.C,RV10*%
X166291331Y-127931667D03*
D20*
X169791331Y-127931667D03*
X166291331Y-84431667D03*
D21*
X172241331Y-123781667D03*
X163841331Y-122581667D03*
X163841331Y-89781667D03*
X172241331Y-88581667D03*
%TD*%
D11*
%TO.C,R25*%
X146022500Y-68981667D03*
X144022500Y-68981667D03*
%TD*%
D15*
%TO.C,R50*%
X258182500Y-68971667D03*
X260182500Y-68971667D03*
%TD*%
D19*
%TO.C,RV6*%
X113449999Y-127931667D03*
D20*
X116949999Y-127931667D03*
X113449999Y-84431667D03*
D21*
X119399999Y-123781667D03*
X110999999Y-122581667D03*
X110999999Y-89781667D03*
X119399999Y-88581667D03*
%TD*%
D15*
%TO.C,R65*%
X306402500Y-72244167D03*
X308402500Y-72244167D03*
%TD*%
D10*
%TO.C,D10*%
X198527500Y-96446667D03*
X198527500Y-93906667D03*
%TD*%
D16*
%TO.C,R43*%
X217607500Y-110816667D03*
X217607500Y-108816667D03*
%TD*%
D11*
%TO.C,R56*%
X279292500Y-71951667D03*
X277292500Y-71951667D03*
%TD*%
D18*
%TO.C,R3*%
X60045000Y-41285000D03*
X60045000Y-43285000D03*
%TD*%
%TO.C,R20*%
X68850000Y-66261667D03*
X68850000Y-68261667D03*
%TD*%
D16*
%TO.C,R17*%
X62680000Y-66141667D03*
X62680000Y-64141667D03*
%TD*%
D15*
%TO.C,R24*%
X124872500Y-71921667D03*
X126872500Y-71921667D03*
%TD*%
D14*
%TO.C,D16*%
X206470000Y-107736388D03*
X206470000Y-111036388D03*
%TD*%
D15*
%TO.C,R63*%
X306372500Y-59664167D03*
X308372500Y-59664167D03*
%TD*%
D22*
%TO.C,H12*%
X172902500Y-38464611D03*
%TD*%
D17*
%TO.C,C23*%
X143985000Y-73101667D03*
X146060000Y-73101667D03*
%TD*%
D19*
%TO.C,RV16*%
X279845221Y-127931667D03*
D20*
X283345221Y-127931667D03*
X279845221Y-84431667D03*
D21*
X285795221Y-123781667D03*
X277395221Y-122581667D03*
X277395221Y-89781667D03*
X285795221Y-88581667D03*
%TD*%
D15*
%TO.C,R23*%
X120802500Y-68751667D03*
X122802500Y-68751667D03*
%TD*%
D35*
%TO.C,U8*%
X55225000Y-63236667D03*
X55225000Y-64506667D03*
X55225000Y-65776667D03*
X55225000Y-67046667D03*
X60175000Y-67046667D03*
X60175000Y-65776667D03*
X60175000Y-64506667D03*
X60175000Y-63236667D03*
%TD*%
D14*
%TO.C,D9*%
X204000000Y-97350000D03*
X204000000Y-100650000D03*
%TD*%
D16*
%TO.C,R40*%
X217617500Y-125756667D03*
X217617500Y-123756667D03*
%TD*%
D19*
%TO.C,RV21*%
X345896886Y-127931667D03*
D20*
X349396886Y-127931667D03*
X345896886Y-84431667D03*
D21*
X351846886Y-123781667D03*
X343446886Y-122581667D03*
X343446886Y-89781667D03*
X351846886Y-88581667D03*
%TD*%
D19*
%TO.C,RV5*%
X100239666Y-127931667D03*
D20*
X103739666Y-127931667D03*
X100239666Y-84431667D03*
D21*
X106189666Y-123781667D03*
X97789666Y-122581667D03*
X97789666Y-89781667D03*
X106189666Y-88581667D03*
%TD*%
D29*
%TO.C,C45*%
X283060000Y-60321667D03*
X280985000Y-60321667D03*
%TD*%
%TO.C,C13*%
X108015000Y-70691667D03*
X105940000Y-70691667D03*
%TD*%
D16*
%TO.C,R60*%
X243862500Y-66771667D03*
X243862500Y-64771667D03*
%TD*%
D29*
%TO.C,C55*%
X327500000Y-60614167D03*
X325425000Y-60614167D03*
%TD*%
D17*
%TO.C,C14*%
X49575000Y-51260000D03*
X51650000Y-51260000D03*
%TD*%
D36*
%TO.C,C4*%
X68240000Y-42192500D03*
X68240000Y-44267500D03*
%TD*%
D17*
%TO.C,C46*%
X241715000Y-68911667D03*
X243790000Y-68911667D03*
%TD*%
%TO.C,C15*%
X105930000Y-58541667D03*
X108005000Y-58541667D03*
%TD*%
D29*
%TO.C,C58*%
X345280000Y-73001667D03*
X343205000Y-73001667D03*
%TD*%
D17*
%TO.C,C17*%
X62602500Y-68161667D03*
X64677500Y-68161667D03*
%TD*%
%TO.C,C52*%
X325365000Y-73194167D03*
X327440000Y-73194167D03*
%TD*%
D10*
%TO.C,D17*%
X211447500Y-111386667D03*
X211447500Y-108846667D03*
%TD*%
D17*
%TO.C,C39*%
X258135000Y-71001667D03*
X260210000Y-71001667D03*
%TD*%
D12*
%TO.C,H5*%
X372552500Y-35264611D03*
X373255444Y-33567555D03*
X373255444Y-36961667D03*
X374952500Y-32864611D03*
D13*
X374952500Y-35264611D03*
D12*
X374952500Y-37664611D03*
X376649556Y-33567555D03*
X376649556Y-36961667D03*
X377352500Y-35264611D03*
%TD*%
D15*
%TO.C,R73*%
X347092500Y-71971667D03*
X349092500Y-71971667D03*
%TD*%
D19*
%TO.C,RV11*%
X179501667Y-127931667D03*
D20*
X183001667Y-127931667D03*
X179501667Y-84431667D03*
D21*
X185451667Y-123781667D03*
X177051667Y-122581667D03*
X177051667Y-89781667D03*
X185451667Y-88581667D03*
%TD*%
D16*
%TO.C,R34*%
X192377500Y-118286667D03*
X192377500Y-116286667D03*
%TD*%
D29*
%TO.C,C27*%
X159792500Y-58571667D03*
X157717500Y-58571667D03*
%TD*%
D36*
%TO.C,C5*%
X68255000Y-51277500D03*
X68255000Y-53352500D03*
%TD*%
D30*
%TO.C,C31*%
X201670000Y-79197500D03*
X201670000Y-77122500D03*
%TD*%
D24*
%TO.C,U5*%
X266847500Y-57981667D03*
D25*
X266847500Y-60521667D03*
X266847500Y-63061667D03*
X266847500Y-65601667D03*
X266847500Y-68141667D03*
X266847500Y-70681667D03*
X266847500Y-73221667D03*
X274467500Y-73221667D03*
X274467500Y-70681667D03*
X274467500Y-68141667D03*
X274467500Y-65601667D03*
X274467500Y-63061667D03*
X274467500Y-60521667D03*
X274467500Y-57981667D03*
%TD*%
D29*
%TO.C,C38*%
X260210000Y-73091667D03*
X258135000Y-73091667D03*
%TD*%
D19*
%TO.C,RV7*%
X126660332Y-127931667D03*
D20*
X130160332Y-127931667D03*
X126660332Y-84431667D03*
D21*
X132610332Y-123781667D03*
X124210332Y-122581667D03*
X124210332Y-89781667D03*
X132610332Y-88581667D03*
%TD*%
D29*
%TO.C,C42*%
X283260000Y-70891667D03*
X281185000Y-70891667D03*
%TD*%
D17*
%TO.C,C22*%
X120765000Y-70861667D03*
X122840000Y-70861667D03*
%TD*%
D30*
%TO.C,C32*%
X199460000Y-79197500D03*
X199460000Y-77122500D03*
%TD*%
D19*
%TO.C,RV15*%
X266923055Y-127931667D03*
D20*
X270423055Y-127931667D03*
X266923055Y-84431667D03*
D21*
X272873055Y-123781667D03*
X264473055Y-122581667D03*
X264473055Y-89781667D03*
X272873055Y-88581667D03*
%TD*%
D16*
%TO.C,R37*%
X192397500Y-103346667D03*
X192397500Y-101346667D03*
%TD*%
D17*
%TO.C,C60*%
X94700000Y-65641667D03*
X96775000Y-65641667D03*
%TD*%
D37*
%TO.C,J2*%
X94952500Y-38464611D03*
D38*
X92452500Y-38464611D03*
%TD*%
D42*
%TO.C,U11*%
X53080000Y-49270000D03*
X53080000Y-48000000D03*
X53080000Y-46730000D03*
X53080000Y-45460000D03*
X48130000Y-45460000D03*
X48130000Y-46730000D03*
X48130000Y-48000000D03*
X48130000Y-49270000D03*
%TD*%
D12*
%TO.C,H7*%
X32552500Y-84913139D03*
X33255444Y-83216083D03*
X33255444Y-86610195D03*
X34952500Y-82513139D03*
D13*
X34952500Y-84913139D03*
D12*
X34952500Y-87313139D03*
X36649556Y-83216083D03*
X36649556Y-86610195D03*
X37352500Y-84913139D03*
%TD*%
D24*
%TO.C,U6*%
X311137500Y-58254167D03*
D25*
X311137500Y-60794167D03*
X311137500Y-63334167D03*
X311137500Y-65874167D03*
X311137500Y-68414167D03*
X311137500Y-70954167D03*
X311137500Y-73494167D03*
X318757500Y-73494167D03*
X318757500Y-70954167D03*
X318757500Y-68414167D03*
X318757500Y-65874167D03*
X318757500Y-63334167D03*
X318757500Y-60794167D03*
X318757500Y-58254167D03*
%TD*%
D43*
%TO.C,C2*%
X53300000Y-36390000D03*
X45300000Y-36390000D03*
%TD*%
D44*
%TO.C,J8*%
X43024944Y-47026779D03*
D45*
X36724944Y-47026779D03*
D46*
X40124944Y-51826779D03*
%TD*%
D29*
%TO.C,C19*%
X122860000Y-58371667D03*
X120785000Y-58371667D03*
%TD*%
D26*
%TO.C,J1*%
X117872500Y-34884611D03*
X117872500Y-32384611D03*
X112872500Y-39884611D03*
X107872500Y-34884611D03*
X107872500Y-32384611D03*
D27*
X117872500Y-39884611D03*
D28*
X112872500Y-34884611D03*
D27*
X107872500Y-39884611D03*
%TD*%
D36*
%TO.C,C47*%
X246122500Y-66964167D03*
X246122500Y-69039167D03*
%TD*%
D30*
%TO.C,C68*%
X60540000Y-72919167D03*
X60540000Y-70844167D03*
%TD*%
D15*
%TO.C,R9*%
X83597500Y-68931667D03*
X85597500Y-68931667D03*
%TD*%
D11*
%TO.C,R54*%
X283222500Y-68821667D03*
X281222500Y-68821667D03*
%TD*%
%TO.C,R35*%
X196467500Y-73000000D03*
X194467500Y-73000000D03*
%TD*%
D15*
%TO.C,R72*%
X343272500Y-68891667D03*
X345272500Y-68891667D03*
%TD*%
D17*
%TO.C,C37*%
X227375000Y-67071667D03*
X229450000Y-67071667D03*
%TD*%
D16*
%TO.C,R39*%
X192427500Y-88406667D03*
X192427500Y-86406667D03*
%TD*%
D11*
%TO.C,R67*%
X323512500Y-72214167D03*
X321512500Y-72214167D03*
%TD*%
D15*
%TO.C,R31*%
X157772500Y-68761667D03*
X159772500Y-68761667D03*
%TD*%
%TO.C,R8*%
X50830000Y-64481667D03*
X52830000Y-64481667D03*
%TD*%
D24*
%TO.C,U3*%
X129567500Y-57981667D03*
D25*
X129567500Y-60521667D03*
X129567500Y-63061667D03*
X129567500Y-65601667D03*
X129567500Y-68141667D03*
X129567500Y-70681667D03*
X129567500Y-73221667D03*
X137187500Y-73221667D03*
X137187500Y-70681667D03*
X137187500Y-68141667D03*
X137187500Y-65601667D03*
X137187500Y-63061667D03*
X137187500Y-60521667D03*
X137187500Y-57981667D03*
%TD*%
D15*
%TO.C,R14*%
X58540000Y-68891667D03*
X60540000Y-68891667D03*
%TD*%
D17*
%TO.C,C51*%
X302455000Y-71204167D03*
X304530000Y-71204167D03*
%TD*%
%TO.C,C62*%
X313925000Y-65879167D03*
X316000000Y-65879167D03*
%TD*%
D31*
%TO.C,Q1*%
X196000000Y-79779950D03*
D32*
X193287274Y-78280331D03*
D31*
X196000000Y-76779950D03*
%TD*%
D29*
%TO.C,C16*%
X108005000Y-60641667D03*
X105930000Y-60641667D03*
%TD*%
D30*
%TO.C,C63*%
X60100000Y-59990000D03*
X60100000Y-57915000D03*
%TD*%
D16*
%TO.C,R45*%
X217677500Y-95616667D03*
X217677500Y-93616667D03*
%TD*%
D19*
%TO.C,RV9*%
X153080998Y-127931667D03*
D20*
X156580998Y-127931667D03*
X153080998Y-84431667D03*
D21*
X159030998Y-123781667D03*
X150630998Y-122581667D03*
X150630998Y-89781667D03*
X159030998Y-88581667D03*
%TD*%
D29*
%TO.C,C21*%
X122840000Y-72941667D03*
X120765000Y-72941667D03*
%TD*%
D10*
%TO.C,D15*%
X211447500Y-118856667D03*
X211447500Y-116316667D03*
%TD*%
D15*
%TO.C,R29*%
X157762500Y-62741667D03*
X159762500Y-62741667D03*
%TD*%
D12*
%TO.C,H1*%
X32552500Y-35264611D03*
X33255444Y-33567555D03*
X33255444Y-36961667D03*
X34952500Y-32864611D03*
D13*
X34952500Y-35264611D03*
D12*
X34952500Y-37664611D03*
X36649556Y-33567555D03*
X36649556Y-36961667D03*
X37352500Y-35264611D03*
%TD*%
D19*
%TO.C,RV2*%
X73819000Y-127931667D03*
D20*
X77319000Y-127931667D03*
X73819000Y-84431667D03*
D21*
X79769000Y-123781667D03*
X71369000Y-122581667D03*
X71369000Y-89781667D03*
X79769000Y-88581667D03*
%TD*%
D16*
%TO.C,R78*%
X57695000Y-49640000D03*
X57695000Y-47640000D03*
%TD*%
D12*
%TO.C,H2*%
X32552500Y-134461667D03*
X33255444Y-132764611D03*
X33255444Y-136158723D03*
X34952500Y-132061667D03*
D13*
X34952500Y-134461667D03*
D12*
X34952500Y-136861667D03*
X36649556Y-132764611D03*
X36649556Y-136158723D03*
X37352500Y-134461667D03*
%TD*%
D17*
%TO.C,C41*%
X281185000Y-72971667D03*
X283260000Y-72971667D03*
%TD*%
D11*
%TO.C,R27*%
X145862500Y-62701667D03*
X143862500Y-62701667D03*
%TD*%
D14*
%TO.C,D20*%
X206470000Y-97360834D03*
X206470000Y-100660834D03*
%TD*%
D29*
%TO.C,C6*%
X85517500Y-58391667D03*
X83442500Y-58391667D03*
%TD*%
D30*
%TO.C,C8*%
X50960000Y-68489167D03*
X50960000Y-66414167D03*
%TD*%
D29*
%TO.C,C9*%
X85635000Y-73011667D03*
X83560000Y-73011667D03*
%TD*%
D11*
%TO.C,R68*%
X327462500Y-62714167D03*
X325462500Y-62714167D03*
%TD*%
D22*
%TO.C,H10*%
X204987500Y-125056667D03*
%TD*%
D15*
%TO.C,R48*%
X262152500Y-59411667D03*
X264152500Y-59411667D03*
%TD*%
D18*
%TO.C,R74*%
X60035000Y-52875000D03*
X60035000Y-54875000D03*
%TD*%
D11*
%TO.C,R76*%
X51210000Y-43570000D03*
X49210000Y-43570000D03*
%TD*%
D19*
%TO.C,RV18*%
X306265887Y-127931667D03*
D20*
X309765887Y-127931667D03*
X306265887Y-84431667D03*
D21*
X312215887Y-123781667D03*
X303815887Y-122581667D03*
X303815887Y-89781667D03*
X312215887Y-88581667D03*
%TD*%
D17*
%TO.C,C10*%
X83560000Y-70981667D03*
X85635000Y-70981667D03*
%TD*%
D11*
%TO.C,R75*%
X55085000Y-43580000D03*
X53085000Y-43580000D03*
%TD*%
D17*
%TO.C,C44*%
X280985000Y-58241667D03*
X283060000Y-58241667D03*
%TD*%
D31*
%TO.C,Q2*%
X209710928Y-79779950D03*
D32*
X206998202Y-78280331D03*
D31*
X209710928Y-76779950D03*
%TD*%
D16*
%TO.C,R58*%
X241782500Y-66781667D03*
X241782500Y-64781667D03*
%TD*%
D15*
%TO.C,R49*%
X229442500Y-64961667D03*
X231442500Y-64961667D03*
%TD*%
D29*
%TO.C,C50*%
X304530000Y-73274167D03*
X302455000Y-73274167D03*
%TD*%
D17*
%TO.C,C61*%
X269635000Y-65606667D03*
X271710000Y-65606667D03*
%TD*%
D23*
%TO.C,D14*%
X212640000Y-73000000D03*
X215940000Y-73000000D03*
%TD*%
D19*
%TO.C,RV8*%
X139870665Y-127931667D03*
D20*
X143370665Y-127931667D03*
X139870665Y-84431667D03*
D21*
X145820665Y-123781667D03*
X137420665Y-122581667D03*
X137420665Y-89781667D03*
X145820665Y-88581667D03*
%TD*%
D10*
%TO.C,D8*%
X198527500Y-103916667D03*
X198527500Y-101376667D03*
%TD*%
D30*
%TO.C,C67*%
X239452500Y-61939167D03*
X239452500Y-59864167D03*
%TD*%
D10*
%TO.C,D1*%
X198527500Y-126326667D03*
X198527500Y-123786667D03*
%TD*%
D19*
%TO.C,RV12*%
X240214222Y-127931667D03*
D20*
X243714222Y-127931667D03*
X240214222Y-84431667D03*
D21*
X246164222Y-123781667D03*
X237764222Y-122581667D03*
X237764222Y-89781667D03*
X246164222Y-88581667D03*
%TD*%
D12*
%TO.C,H13*%
X202552500Y-68520000D03*
X203255444Y-66822944D03*
X203255444Y-70217056D03*
X204952500Y-66120000D03*
D13*
X204952500Y-68520000D03*
D12*
X204952500Y-70920000D03*
X206649556Y-66822944D03*
X206649556Y-70217056D03*
X207352500Y-68520000D03*
%TD*%
D19*
%TO.C,RV22*%
X359107222Y-127931667D03*
D20*
X362607222Y-127931667D03*
X359107222Y-84431667D03*
D21*
X365057222Y-123781667D03*
X356657222Y-122581667D03*
X356657222Y-89781667D03*
X365057222Y-88581667D03*
%TD*%
D17*
%TO.C,C57*%
X343185000Y-60451667D03*
X345260000Y-60451667D03*
%TD*%
M02*
