M48
; DRILL file {KiCad 8.0.8} date 2025-02-12T06:41:47+0100
; FORMAT={-:-/ absolute / inch / decimal}
; #@! TF.CreationDate,2025-02-12T06:41:47+01:00
; #@! TF.GenerationSoftware,Kicad,Pcbnew,8.0.8
; #@! TF.FileFunction,Plated,1,4,PTH
FMAT,2
INCH
; #@! TA.AperFunction,Plated,PTH,ViaDrill
T1C0.0118
; #@! TA.AperFunction,Plated,PTH,ComponentDrill
T2C0.0157
; #@! TA.AperFunction,Plated,PTH,ComponentDrill
T3C0.0197
; #@! TA.AperFunction,Plated,PTH,ComponentDrill
T4C0.0315
; #@! TA.AperFunction,Plated,PTH,ComponentDrill
T5C0.0350
; #@! TA.AperFunction,Plated,PTH,ComponentDrill
T6C0.0374
; #@! TA.AperFunction,Plated,PTH,ComponentDrill
T7C0.0394
; #@! TA.AperFunction,Plated,PTH,ComponentDrill
T8C0.0472
; #@! TA.AperFunction,Plated,PTH,ComponentDrill
T9C0.0669
; #@! TA.AperFunction,Plated,PTH,ComponentDrill
T10C0.1260
%
G90
G05
T1
X1.4866Y-2.6587
X1.6882Y-1.6098
X1.7677Y-3.2362
X1.8835Y-1.5996
X1.9748Y-2.2331
X2.0106Y-2.763
X2.0835Y-2.6126
X2.1264Y-1.6594
X2.2134Y-1.8008
X2.2709Y-2.0031
X2.3047Y-2.4362
X2.3811Y-2.9315
X2.4555Y-1.8539
X2.4874Y-2.1445
X2.5744Y-1.5902
X2.6051Y-1.8965
X2.6874Y-2.15
X2.7587Y-1.661
X2.7791Y-2.6098
X2.7854Y-2.6874
X3.2862Y-2.5197
X3.2917Y-2.661
X3.5535Y-1.9988
X3.572Y-1.5138
X3.6406Y-1.5894
X3.728Y-2.2441
X4.2469Y-1.8685
X4.2516Y-2.5244
X4.2563Y-2.6425
X4.3157Y-1.7752
X4.4929Y-2.0673
X4.5098Y-1.9343
X4.7091Y-2.0744
X4.7346Y-1.3429
X4.7559Y-2.6508
X4.7579Y-2.5205
X4.7961Y-1.6937
X5.02Y-1.9578
X5.022Y-1.2638
X5.1169Y-1.2748
X5.1184Y-1.9582
X5.2102Y-2.3445
X5.5421Y-1.8976
X5.5996Y-2.0705
X5.7425Y-2.526
X5.7492Y-2.661
X5.9142Y-1.7457
X6.211Y-2.522
X6.211Y-2.6539
X6.3307Y-1.5134
X6.3961Y-1.5831
X6.6587Y-2.4902
X7.4201Y-2.3185
X7.652Y-2.6543
X7.6697Y-2.5106
X7.7157Y-2.9732
X7.7606Y-3.2154
X7.8878Y-2.9654
X7.9023Y-2.8298
X7.9972Y-3.1177
X8.0614Y-2.8929
X8.2839Y-2.9787
X8.2941Y-2.6807
X8.3039Y-3.2161
X8.3406Y-2.9343
X8.539Y-3.1311
X8.6768Y-2.9366
X8.8512Y-2.6433
X9.1504Y-2.324
X9.2992Y-2.5079
X9.3394Y-2.6732
X9.3669Y-2.8945
X9.4185Y-2.9752
X9.5697Y-2.3402
X9.6894Y-2.8535
X9.8287Y-2.637
X10.1642Y-2.661
X10.1681Y-2.5236
X10.6157Y-2.3343
X11.1437Y-2.5197
X11.1528Y-2.6539
X11.9102Y-2.528
X11.9102Y-2.6665
X12.3587Y-2.2843
X12.8898Y-2.6622
X12.8913Y-2.5236
X13.513Y-2.5157
X13.5146Y-2.6587
X13.9577Y-2.2496
X14.3276Y-2.4461
X14.3283Y-2.7232
T3
X1.2816Y-1.3884
X1.2816Y-3.343
X1.2816Y-5.2938
X1.3093Y-1.3216
X1.3093Y-1.4552
X1.3093Y-3.2762
X1.3093Y-3.4099
X1.3093Y-5.227
X1.3093Y-5.3606
X1.3761Y-1.2939
X1.3761Y-1.4829
X1.3761Y-3.2485
X1.3761Y-3.4375
X1.3761Y-5.1993
X1.3761Y-5.3883
X1.4429Y-1.3216
X1.4429Y-1.4552
X1.4429Y-3.2762
X1.4429Y-3.4099
X1.4429Y-5.227
X1.4429Y-5.3606
X1.4706Y-1.3884
X1.4706Y-3.343
X1.4706Y-5.2938
X7.9745Y-1.3884
X7.9745Y-2.6976
X7.9745Y-5.2938
X8.0022Y-1.3216
X8.0022Y-1.4552
X8.0022Y-2.6308
X8.0022Y-2.7645
X8.0022Y-5.227
X8.0022Y-5.3606
X8.069Y-1.2939
X8.069Y-1.4829
X8.069Y-2.6031
X8.069Y-2.7921
X8.069Y-5.1993
X8.069Y-5.3883
X8.1358Y-1.3216
X8.1358Y-1.4552
X8.1358Y-2.6308
X8.1358Y-2.7645
X8.1358Y-5.227
X8.1358Y-5.3606
X8.1635Y-1.3884
X8.1635Y-2.6976
X8.1635Y-5.2938
X14.6674Y-1.3884
X14.6674Y-2.6976
X14.6674Y-3.343
X14.6674Y-5.2938
X14.6951Y-1.3216
X14.6951Y-1.4552
X14.6951Y-2.6308
X14.6951Y-2.7645
X14.6951Y-3.2762
X14.6951Y-3.4099
X14.6951Y-5.227
X14.6951Y-5.3606
X14.7619Y-1.2939
X14.7619Y-1.4829
X14.7619Y-2.6031
X14.7619Y-2.7921
X14.7619Y-3.2485
X14.7619Y-3.4375
X14.7619Y-5.1993
X14.7619Y-5.3883
X14.8287Y-1.3216
X14.8287Y-1.4552
X14.8287Y-2.6308
X14.8287Y-2.7645
X14.8287Y-3.2762
X14.8287Y-3.4099
X14.8287Y-5.227
X14.8287Y-5.3606
X14.8564Y-1.3884
X14.8564Y-2.6976
X14.8564Y-3.343
X14.8564Y-5.2938
T4
X3.6192Y-2.2827
X3.6192Y-2.3827
X3.6192Y-2.4827
X3.6192Y-2.5827
X3.6192Y-2.6827
X3.6192Y-2.7827
X3.6192Y-2.8827
X3.9192Y-2.2827
X3.9192Y-2.3827
X3.9192Y-2.4827
X3.9192Y-2.5827
X3.9192Y-2.6827
X3.9192Y-2.7827
X3.9192Y-2.8827
X5.1011Y-2.2827
X5.1011Y-2.3827
X5.1011Y-2.4827
X5.1011Y-2.5827
X5.1011Y-2.6827
X5.1011Y-2.7827
X5.1011Y-2.8827
X5.4011Y-2.2827
X5.4011Y-2.3827
X5.4011Y-2.4827
X5.4011Y-2.5827
X5.4011Y-2.6827
X5.4011Y-2.7827
X5.4011Y-2.8827
X6.5485Y-2.2827
X6.5485Y-2.3827
X6.5485Y-2.4827
X6.5485Y-2.5827
X6.5485Y-2.6827
X6.5485Y-2.7827
X6.5485Y-2.8827
X6.8485Y-2.2827
X6.8485Y-2.3827
X6.8485Y-2.4827
X6.8485Y-2.5827
X6.8485Y-2.6827
X6.8485Y-2.7827
X6.8485Y-2.8827
X10.5058Y-2.2827
X10.5058Y-2.3827
X10.5058Y-2.4827
X10.5058Y-2.5827
X10.5058Y-2.6827
X10.5058Y-2.7827
X10.5058Y-2.8827
X10.8058Y-2.2827
X10.8058Y-2.3827
X10.8058Y-2.4827
X10.8058Y-2.5827
X10.8058Y-2.6827
X10.8058Y-2.7827
X10.8058Y-2.8827
X12.2495Y-2.2935
X12.2495Y-2.3935
X12.2495Y-2.4935
X12.2495Y-2.5935
X12.2495Y-2.6935
X12.2495Y-2.7935
X12.2495Y-2.8935
X12.5495Y-2.2935
X12.5495Y-2.3935
X12.5495Y-2.4935
X12.5495Y-2.5935
X12.5495Y-2.6935
X12.5495Y-2.7935
X12.5495Y-2.8935
X13.8479Y-2.2827
X13.8479Y-2.3827
X13.8479Y-2.4827
X13.8479Y-2.5827
X13.8479Y-2.6827
X13.8479Y-2.7827
X13.8479Y-2.8827
X14.1479Y-2.2827
X14.1479Y-2.3827
X14.1479Y-2.4827
X14.1479Y-2.5827
X14.1479Y-2.6827
X14.1479Y-2.7827
X14.1479Y-2.8827
T5
X7.816Y-3.403
X7.816Y-3.503
X7.816Y-3.6971
X7.816Y-3.7971
X7.816Y-3.9912
X7.816Y-4.0912
X7.816Y-4.2853
X7.816Y-4.3853
X7.816Y-4.5794
X7.816Y-4.6794
X7.816Y-4.8735
X7.816Y-4.9735
X8.3247Y-3.403
X8.3247Y-3.503
X8.3247Y-3.6971
X8.3247Y-3.7971
X8.3247Y-3.9912
X8.3247Y-4.0912
X8.3247Y-4.2853
X8.3247Y-4.3853
X8.3247Y-4.5794
X8.3247Y-4.6794
X8.3247Y-4.8735
X8.3247Y-4.9735
T6
X1.4173Y-2.5591
X1.4173Y-2.6575
X1.4173Y-2.7559
X4.921Y-1.4119
X4.9264Y-1.8701
X5.0194Y-1.4119
X5.0248Y-1.8701
X5.1178Y-1.4119
X5.1232Y-1.8701
X5.2162Y-1.4119
X5.2217Y-1.8701
T7
X3.6399Y-1.5144
X3.7383Y-1.5144
X6.3958Y-1.5144
X6.4942Y-1.5144
T8
X1.8661Y-3.5357
X1.8661Y-4.8349
X2.0039Y-4.8349
X2.3862Y-3.3241
X2.3862Y-5.0367
X2.524Y-5.0367
X2.9063Y-3.3241
X2.9063Y-5.0367
X3.0441Y-5.0367
X3.4264Y-3.3241
X3.4264Y-5.0367
X3.5641Y-5.0367
X3.9464Y-3.3241
X3.9464Y-5.0367
X4.0842Y-5.0367
X4.4665Y-3.3241
X4.4665Y-5.0367
X4.6043Y-5.0367
X4.9866Y-3.3241
X4.9866Y-5.0367
X5.1244Y-5.0367
X5.5067Y-3.3241
X5.5067Y-5.0367
X5.6445Y-5.0367
X6.0268Y-3.3241
X6.0268Y-5.0367
X6.1646Y-5.0367
X6.5469Y-3.3241
X6.5469Y-5.0367
X6.6847Y-5.0367
X7.067Y-3.3241
X7.067Y-5.0367
X7.2048Y-5.0367
X8.9372Y-3.5357
X8.9372Y-4.8349
X9.075Y-4.8349
X9.4573Y-3.3241
X9.4573Y-5.0367
X9.595Y-5.0367
X9.9773Y-3.3241
X9.9773Y-5.0367
X10.1151Y-5.0367
X10.5088Y-3.3241
X10.5088Y-5.0367
X10.6466Y-5.0367
X11.0175Y-3.3241
X11.0175Y-5.0367
X11.1553Y-5.0367
X11.5376Y-3.3241
X11.5376Y-5.0367
X11.6754Y-5.0367
X12.0577Y-3.3241
X12.0577Y-5.0367
X12.1955Y-5.0367
X12.5778Y-3.3241
X12.5778Y-5.0367
X12.7156Y-5.0367
X13.0979Y-3.3241
X13.0979Y-5.0367
X13.2357Y-5.0367
X13.618Y-3.3241
X13.618Y-5.0367
X13.7558Y-5.0367
X14.1381Y-3.3241
X14.1381Y-5.0367
X14.2759Y-5.0367
T9
X1.7696Y-3.7365
X1.7696Y-4.6341
X2.1003Y-3.6892
X2.1003Y-4.6814
X2.2897Y-3.5347
X2.2897Y-4.826
X2.6204Y-3.4875
X2.6204Y-4.8733
X2.8098Y-3.5347
X2.8098Y-4.826
X3.1405Y-3.4875
X3.1405Y-4.8733
X3.3299Y-3.5347
X3.3299Y-4.826
X3.6606Y-3.4875
X3.6606Y-4.8733
X3.85Y-3.5347
X3.85Y-4.826
X4.1807Y-3.4875
X4.1807Y-4.8733
X4.3701Y-3.5347
X4.3701Y-4.826
X4.7008Y-3.4875
X4.7008Y-4.8733
X4.8902Y-3.5347
X4.8902Y-4.826
X5.2209Y-3.4875
X5.2209Y-4.8733
X5.4103Y-3.5347
X5.4103Y-4.826
X5.741Y-3.4875
X5.741Y-4.8733
X5.9304Y-3.5347
X5.9304Y-4.826
X6.2611Y-3.4875
X6.2611Y-4.8733
X6.4504Y-3.5347
X6.4504Y-4.826
X6.7812Y-3.4875
X6.7812Y-4.8733
X6.9705Y-3.5347
X6.9705Y-4.826
X7.3012Y-3.4875
X7.3012Y-4.8733
X8.8407Y-3.7365
X8.8407Y-4.6341
X9.1714Y-3.6892
X9.1714Y-4.6814
X9.3608Y-3.5347
X9.3608Y-4.826
X9.6915Y-3.4875
X9.6915Y-4.8733
X9.8809Y-3.5347
X9.8809Y-4.826
X10.2116Y-3.4875
X10.2116Y-4.8733
X10.4123Y-3.5347
X10.4123Y-4.826
X10.743Y-3.4875
X10.743Y-4.8733
X10.9211Y-3.5347
X10.9211Y-4.826
X11.2518Y-3.4875
X11.2518Y-4.8733
X11.4412Y-3.5347
X11.4412Y-4.826
X11.7719Y-3.4875
X11.7719Y-4.8733
X11.9613Y-3.5347
X11.9613Y-4.826
X12.292Y-3.4875
X12.292Y-4.8733
X12.4813Y-3.5347
X12.4813Y-4.826
X12.8121Y-3.4875
X12.8121Y-4.8733
X13.0014Y-3.5347
X13.0014Y-4.826
X13.3321Y-3.4875
X13.3321Y-4.8733
X13.5215Y-3.5347
X13.5215Y-4.826
X13.8522Y-3.4875
X13.8522Y-4.8733
X14.0416Y-3.5347
X14.0416Y-4.826
X14.3723Y-3.4875
X14.3723Y-4.8733
T10
X1.3761Y-1.3884
X1.3761Y-3.343
X1.3761Y-5.2938
X8.069Y-1.3884
X8.069Y-2.6976
X8.069Y-5.2938
X14.7619Y-1.3884
X14.7619Y-2.6976
X14.7619Y-3.343
X14.7619Y-5.2938
T2
G00X4.2469Y-1.5506
M15
G01X4.2469Y-1.5899
M16
G05
G00X4.4635Y-1.3734
M15
G01X4.4241Y-1.3734
M16
G05
G00X4.6406Y-1.5899
M15
G01X4.6406Y-1.5506
M16
G05
G00X5.4934Y-1.5506
M15
G01X5.4934Y-1.5899
M16
G05
G00X5.7099Y-1.3734
M15
G01X5.6706Y-1.3734
M16
G05
G00X5.8871Y-1.5899
M15
G01X5.8871Y-1.5506
M16
G05
T7
G00X1.4459Y-1.8081
M15
G01X1.4459Y-1.8948
M16
G05
G00X1.623Y-2.0404
M15
G01X1.5364Y-2.0404
M16
G05
G00X1.6939Y-1.8003
M15
G01X1.6939Y-1.9026
M16
G05
M30
